<svg id="Layer_1" data-name="Layer 1" xmlns="http://www.w3.org/2000/svg" viewBox="0 0 163.47 205.75"><defs><style>.cls-1{fill:#332821;}</style></defs><title>tools</title><path class="cls-1" d="M133.38,52.35c-3.13-20.81-25.9-32.23-26.87-32.7A4.89,4.89,0,0,0,99.45,24V55.88H86.39V27.31a4.9,4.9,0,0,0-7.06-4.4c-13.21,6.48-20.9,15.35-22.85,26.38C53.27,67.45,67.15,85.2,71.69,90.42V156c-12,13-16.9,25.8-14.64,38.05,3.63,19.75,24.71,29.94,25.6,30.37a5,5,0,0,0,2.1.47,4.9,4.9,0,0,0,4.9-4.9V185.7h14.7v30.21a4.9,4.9,0,0,0,8,3.77c13.22-11,19.77-22.79,19.47-35.12-.37-14.92-10.8-25.77-15.26-29.73V90.62C129.63,77.8,135.27,64.94,133.38,52.35ZM108.76,161c.13.1,12.95,9.88,13.29,23.76.16,6.51-2.49,13-7.9,19.48V180.8a4.9,4.9,0,0,0-4.9-4.9H84.75a4.9,4.9,0,0,0-4.9,4.9v30.33c-5.19-3.92-11.62-10.35-13.18-18.9-1.71-9.42,2.82-19.81,13.46-30.9a4.92,4.92,0,0,0,1.36-3.39V88.54a4.94,4.94,0,0,0-1.36-3.39C80,85,63.23,67.22,66.13,51c1-5.76,4.53-10.81,10.46-15.09v24.9a4.9,4.9,0,0,0,4.9,4.9h22.86a4.91,4.91,0,0,0,4.9-4.9V32.93c5.71,4.28,13,11.45,14.44,20.88C125.15,63.51,120,74,108.34,85a4.93,4.93,0,0,0-1.54,3.57v68.58A4.88,4.88,0,0,0,108.76,161Z" transform="translate(-56 -19.14)"/><path class="cls-1" d="M218.34,133.59l-18.47-22.32V64.19L211,50.85a4.88,4.88,0,0,0,.62-5.32L200.17,22.67A4.86,4.86,0,0,0,195.61,20l-22.05.82A4.9,4.9,0,0,0,169,24.35l-7.35,26.12a4.92,4.92,0,0,0,1.49,5l11.39,10v45.09L152.74,138.6a4.91,4.91,0,0,0-1,3v72.66a4.9,4.9,0,0,0,4.9,4.9h58a4.9,4.9,0,0,0,4.9-4.9V136.71A4.88,4.88,0,0,0,218.34,133.59ZM172,50.15l5.55-19.71,15.32-.57L201.41,47l-10.2,12.24a4.91,4.91,0,0,0-1.13,3.13v44.91h-5.72V63.23a4.92,4.92,0,0,0-1.67-3.69Zm37.72,159.23h-9.8V150.59a4.9,4.9,0,1,0-9.79,0v58.79h-9.8V150.59a4.9,4.9,0,1,0-9.8,0v58.79h-9V143.29l20.36-26.17H192l17.67,21.35Z" transform="translate(-56 -19.14)"/></svg>